<svg version="1.1" id="Layer_1" xmlns="http://www.w3.org/2000/svg" xmlns:xlink="http://www.w3.org/1999/xlink" x="0px" y="0px"
	 width="100%" viewBox="0 0 251 229" enable-background="new 0 0 251 229" xml:space="preserve">
<path fill="#FEFEFE" opacity="1.000000" stroke="none" 
	d="
M152.000000,230.000000 
	C101.333336,230.000000 51.166672,230.000000 1.000007,230.000000 
	C1.000005,153.666672 1.000005,77.333351 1.000002,1.000017 
	C84.666656,1.000011 168.333313,1.000011 251.999969,1.000006 
	C251.999985,77.333321 251.999985,153.666641 252.000000,229.999969 
	C218.833328,230.000000 185.666672,230.000000 152.000000,230.000000 
M136.598755,210.962875 
	C136.783646,210.660065 136.968536,210.357254 137.585999,209.820999 
	C137.837982,209.582321 137.969376,209.289520 138.487671,208.648071 
	C138.703247,208.120926 138.918839,207.593781 139.015045,207.024933 
	C139.015045,207.024933 139.114502,207.103043 139.676208,206.806015 
	C140.125046,205.867767 140.573898,204.929535 141.211960,203.777954 
	C141.211960,203.777954 141.154114,203.498718 141.684418,203.055191 
	C141.878647,202.411102 142.072876,201.767029 142.127563,201.060318 
	C142.127563,201.060318 142.223175,201.179688 142.831085,200.772018 
	C143.210464,198.849167 143.589844,196.926331 144.150726,194.690399 
	C144.150726,194.690399 144.162827,194.328705 144.806076,193.858215 
	C145.329071,191.532349 145.852066,189.206467 146.454559,186.805908 
	C146.454559,186.805908 146.479156,186.699631 146.907104,185.983749 
	C147.376831,180.704727 147.846573,175.425690 148.741638,169.473679 
	C148.869217,166.488831 148.996811,163.503998 149.678894,159.850113 
	C149.836014,157.584763 149.993118,155.319397 150.248962,152.749039 
	C150.248962,152.749039 150.138229,152.448181 150.530441,152.088852 
	C150.591660,151.752502 150.652893,151.416138 150.866196,150.273056 
	C150.844238,149.180847 150.822281,148.088623 150.992752,146.269501 
	C151.053284,145.282349 151.113800,144.295212 151.772156,143.083054 
	C152.189362,143.036179 152.606567,142.989304 153.272705,143.601288 
	C165.704483,167.561920 178.119354,191.531372 190.604340,215.464233 
	C191.479645,217.142136 192.873825,218.549347 193.971191,220.684280 
	C195.154922,222.359924 196.161102,225.300613 197.552612,225.495926 
	C204.173767,226.425308 210.962921,227.050873 217.693848,223.046707 
	C219.135010,222.018478 220.576172,220.990250 222.659378,219.975967 
	C223.516647,219.401016 224.373901,218.826065 225.852249,218.047577 
	C227.228043,216.696198 228.603836,215.344803 230.222305,213.609177 
	C230.222305,213.609177 230.197617,213.155380 230.263458,213.193039 
	C230.263458,213.193039 230.338791,213.201813 230.977783,213.062424 
	C232.382172,211.168320 233.786560,209.274216 235.689362,206.895325 
	C236.747375,204.929398 237.805389,202.963486 239.240265,200.459869 
	C239.503235,199.641068 239.766190,198.822281 240.159042,197.663452 
	C240.159042,197.663452 240.146774,197.299683 240.632874,196.745453 
	C241.357758,194.163986 242.082642,191.582520 242.969986,188.284012 
	C243.020752,187.553391 243.071518,186.822769 243.115341,186.043930 
	C243.115341,186.043930 243.075897,186.072510 243.600723,185.590836 
	C243.679993,184.415253 243.759262,183.239685 243.983231,181.471481 
	C243.981110,181.268143 243.978973,181.064804 244.390732,180.426590 
	C244.459305,179.645279 244.527878,178.863953 244.762405,177.375336 
	C244.720795,176.895248 244.679184,176.415146 244.771088,175.452332 
	C244.734360,175.289459 244.697647,175.126602 244.843826,174.180389 
	C244.852448,173.110001 244.861084,172.039597 245.366287,170.320267 
	C245.575867,164.885361 245.785431,159.450455 246.171417,153.193115 
	C246.176636,151.797104 246.181854,150.401108 246.363190,148.244308 
	C246.353622,147.465149 246.344040,146.685989 246.490402,145.680023 
	C246.490402,145.680023 246.392395,145.422806 246.797241,144.811554 
	C246.656631,143.408356 246.516006,142.005157 246.434570,140.313034 
	C246.434570,140.313034 246.254196,140.079712 246.353470,139.336441 
	C246.276855,138.595551 246.200241,137.854660 246.316330,136.883102 
	C246.397720,136.525894 246.262543,136.321777 245.825134,135.610870 
	C245.251404,134.704651 244.677658,133.798431 244.038147,132.977264 
	C244.038147,132.977264 244.139160,132.940445 244.105667,132.336060 
	C243.741547,131.883911 243.377441,131.431747 242.880630,130.512085 
	C242.718552,130.202072 242.465652,130.014481 241.858871,129.398956 
	C241.341660,129.143097 240.824463,128.887238 240.249207,128.812088 
	C240.249207,128.812088 240.377914,128.672592 240.351807,128.079514 
	C239.923843,127.690613 239.495880,127.301712 239.003830,126.993416 
	C239.003830,126.993416 239.087173,126.933014 238.812912,126.339157 
	C237.555283,125.542343 236.297653,124.745529 234.997223,123.990898 
	C234.997223,123.990898 235.042816,123.957619 234.587250,123.390709 
	C228.779633,120.580353 222.912857,119.951912 216.285263,122.954086 
	C214.822952,123.861877 213.360641,124.769669 211.326141,125.851883 
	C210.899551,126.243095 210.472977,126.634308 210.004257,126.996399 
	C210.004257,126.996399 210.023468,127.043808 209.435120,127.235336 
	C208.656784,128.164505 207.878433,129.093674 206.873520,130.222610 
	C206.873520,130.222610 206.847931,130.523575 206.345505,130.860306 
	C206.199478,131.226425 206.053452,131.592529 205.996140,131.975571 
	C205.996140,131.975571 205.925171,131.919678 205.402451,132.237930 
	C205.235596,132.812500 205.068741,133.387070 204.986771,133.993454 
	C204.986771,133.993454 204.926880,133.925385 204.392960,134.330444 
	C204.192017,135.189972 203.991089,136.049484 203.895477,136.931931 
	C203.895477,136.931931 203.840652,136.839111 203.420700,137.059143 
	C203.213669,137.342468 203.181870,137.644272 203.090607,138.604965 
	C203.044708,139.055389 202.998810,139.505829 202.509018,140.469345 
	C202.457657,142.008957 202.406296,143.548584 202.219452,145.404602 
	C202.156662,145.639572 202.204803,145.848755 201.790344,146.624664 
	C201.556290,149.078781 201.322235,151.532913 200.899078,154.615250 
	C200.874924,155.052383 200.850769,155.489502 200.270813,155.518768 
	C199.863586,154.439453 199.548264,153.314224 199.035538,152.287598 
	C188.867142,131.927399 178.724640,111.553947 168.458710,91.242928 
	C165.489929,85.369232 162.153351,79.681435 158.686905,73.191429 
	C156.945206,72.852638 155.197403,72.195663 153.462814,72.228844 
	C144.887482,72.392860 137.120239,75.236176 129.297699,79.940208 
	C128.497421,80.612488 127.697136,81.284767 126.463654,82.089539 
	C126.183777,82.249550 126.008766,82.486900 125.455986,83.043411 
	C125.277657,83.345558 125.099335,83.647705 125.000572,83.986275 
	C125.000572,83.986275 124.945663,83.918106 124.436134,84.063644 
	C124.262688,84.357819 124.089249,84.651993 123.991463,84.995689 
	C123.991463,84.995689 123.945457,84.917847 123.444786,85.076698 
	C123.269020,85.367912 123.093254,85.659134 122.998825,85.940742 
	C122.998825,85.940742 122.919189,85.918098 122.311264,86.162971 
	C121.493553,87.404427 120.675842,88.645882 119.862015,89.965714 
	C119.862015,89.965714 119.892464,89.894753 119.277321,90.176880 
	C117.848091,92.781982 116.418854,95.387085 114.830887,98.438576 
	C114.830887,98.438576 114.838333,98.912300 114.833504,98.852463 
	C114.833504,98.852463 114.779350,98.826561 114.237831,99.311584 
	C113.055641,103.848045 111.873451,108.384499 110.288666,113.525002 
	C110.175018,115.003494 110.061371,116.481979 109.471725,118.573853 
	C108.967529,121.078621 108.463333,123.583382 107.811295,125.342247 
	C95.500504,88.563774 83.189713,51.785305 70.976257,14.267401 
	C69.983444,13.541218 68.990631,12.815036 67.111717,11.990238 
	C60.047531,13.536382 52.983345,15.082525 45.211536,16.776375 
	C43.444111,17.823689 41.676682,18.871002 39.892590,19.882847 
	C39.892590,19.882847 39.860455,19.857502 39.191082,19.990974 
	C33.341137,24.214251 28.692497,29.329351 26.423340,36.917599 
	C26.288559,37.276993 26.153776,37.636383 25.884501,38.344894 
	C25.884501,38.344894 25.902073,38.718609 25.371384,39.241043 
	C24.403538,42.822922 23.435692,46.404804 22.239475,50.653564 
	C22.204327,51.120342 22.169178,51.587120 21.855942,52.788307 
	C21.530331,55.407295 21.204718,58.026287 20.367022,61.277111 
	C19.546101,66.768524 18.725180,72.259933 17.409328,78.405441 
	C16.654249,85.283073 15.899168,92.160706 14.942739,99.852531 
	C14.708500,102.570984 14.474260,105.289429 14.027780,108.901741 
	C14.059597,112.266945 14.091415,115.632156 13.722526,119.715561 
	C13.417853,122.474525 13.113180,125.233498 12.687497,128.493484 
	C12.748781,128.824615 12.810065,129.155746 12.322591,130.142075 
	C12.249598,132.079926 12.176605,134.017761 11.952845,136.783554 
	C11.873953,138.182907 11.795061,139.582275 11.354538,141.403732 
	C11.329238,141.953659 11.303938,142.503586 11.150780,143.499252 
	C11.150780,143.499252 11.243958,143.953522 11.107370,144.710571 
	C11.148590,145.475143 11.189810,146.239700 11.079179,147.672806 
	C11.107246,148.127151 11.135314,148.581482 11.031440,149.496490 
	C11.031440,149.496490 11.078849,149.973328 10.905766,150.723221 
	C10.954803,151.483383 11.003839,152.243530 10.754790,153.692688 
	C10.549848,155.130615 10.344905,156.568542 10.015059,158.832153 
	C10.037452,160.221634 10.059844,161.611115 9.912705,163.815033 
	C9.708518,167.540314 9.504330,171.265594 9.073606,175.636292 
	C9.075125,176.089722 9.076642,176.543167 8.881958,177.653900 
	C8.901875,178.108063 8.921792,178.562241 8.790718,179.850418 
	C8.442869,184.904419 8.095019,189.958435 7.585926,195.485855 
	C7.657438,195.801483 7.728951,196.117126 7.260727,196.984833 
	C7.196010,197.985214 7.131293,198.985596 6.977433,200.494904 
	C7.010021,200.664032 7.042610,200.833145 6.907000,201.683884 
	C7.559263,206.498398 8.211527,211.312912 8.908477,216.024933 
	C8.908477,216.024933 8.810350,216.078537 8.817490,216.696838 
	C9.174397,217.169693 9.531305,217.642548 9.864819,218.019547 
	C9.864819,218.019547 9.846054,218.116440 9.936483,218.725342 
	C10.516165,219.242645 11.095846,219.759949 11.713419,220.263641 
	C11.713419,220.263641 11.743491,220.236877 11.847372,220.770782 
	C12.153751,220.933182 12.460131,221.095581 12.902778,221.224991 
	C12.902778,221.224991 12.766662,221.191360 12.890103,221.788361 
	C13.216954,222.023300 13.543806,222.258255 14.293128,223.020584 
	C15.903502,223.837769 17.431133,224.977661 19.138773,225.415512 
	C26.019672,227.179825 32.944515,228.625275 39.678005,223.090591 
	C40.179222,222.794937 40.680439,222.499268 41.036366,222.103424 
	C41.036366,222.103424 41.140755,222.245728 41.714706,222.168411 
	C42.102238,221.769150 42.489773,221.369873 42.975964,220.976059 
	C42.975964,220.976059 42.970898,220.877380 43.496418,220.644623 
	C43.739567,220.144867 43.982719,219.645126 44.163525,219.216110 
	C44.163525,219.216110 44.255581,219.195724 44.721581,219.040512 
	C44.986252,218.818497 45.142941,218.536438 45.740704,217.777145 
	C46.586418,215.679916 47.432129,213.582703 48.796135,210.823395 
	C49.535210,200.882797 50.274281,190.942215 51.455124,180.336029 
	C51.602264,178.224579 51.749405,176.113129 52.108334,173.267212 
	C52.661110,170.541153 53.213886,167.815109 53.906452,164.560806 
	C53.681465,164.076599 53.456474,163.592407 53.840221,162.608871 
	C54.015869,160.782150 54.191517,158.955444 54.781040,156.436661 
	C54.917423,153.955627 55.053806,151.474609 55.329540,148.746445 
	C55.329540,148.746445 55.288147,148.465775 55.727543,147.743408 
	C55.910580,144.997086 56.093616,142.250748 56.713585,138.799576 
	C56.854839,136.324463 56.996094,133.849350 57.593166,130.771179 
	C57.639950,129.549210 57.686737,128.327255 57.911423,126.304550 
	C57.987556,125.214142 58.063694,124.123726 58.448299,122.312569 
	C58.586430,120.190971 58.724560,118.069382 59.048664,115.275223 
	C59.400875,114.459503 59.753090,113.643784 60.696102,113.266708 
	C72.273941,147.933151 83.838631,182.604004 95.476395,217.250320 
	C95.955093,218.675430 97.119675,219.870148 97.932510,222.002213 
	C98.772820,223.323120 99.495720,225.687927 100.472237,225.797745 
	C107.493561,226.587433 114.562592,226.891907 121.663643,223.129929 
	C122.146423,222.788528 122.629204,222.447128 123.039803,222.033203 
	C123.039803,222.033203 123.054634,222.134460 123.703300,222.047913 
	C124.002884,221.745255 124.302475,221.442612 124.786110,221.293625 
	C124.786110,221.293625 124.993431,221.173187 125.638565,221.078003 
	C126.457481,220.415604 127.276390,219.753204 128.035995,219.002396 
	C128.035995,219.002396 128.059082,219.106323 128.590332,218.985657 
	C128.780563,218.691833 128.970810,218.397995 129.059601,218.140915 
	C129.059601,218.140915 129.164032,218.168045 129.768967,217.973236 
	C130.602142,217.068298 131.435303,216.163345 132.095901,214.976273 
	C132.095901,214.976273 132.249817,215.267609 132.827057,215.084457 
	C133.277145,214.440292 133.727234,213.796127 134.134674,213.062286 
	C134.134674,213.062286 134.101593,213.155899 134.628494,213.011963 
	C134.803345,212.706726 134.978195,212.401474 135.056396,212.058487 
	C135.056396,212.058487 135.100281,212.152512 135.622177,212.002457 
	C135.787979,211.693298 135.953781,211.384140 136.032776,211.024429 
	C136.032776,211.024429 136.074280,211.115906 136.598755,210.962875 
z"/>
<path fill="#3A4DA1" opacity="1.000000" stroke="none" 
	d="
M70.878914,15.006836 
	C83.189713,51.785305 95.500504,88.563774 107.840378,126.040703 
	C108.014725,127.149612 108.159996,127.560059 108.265778,128.389648 
	C108.138069,130.205505 108.049850,131.602219 107.928932,133.408142 
	C107.626297,136.203812 107.356361,138.590256 107.033936,141.375305 
	C107.001701,142.843674 107.021973,143.913452 106.991936,145.305466 
	C106.926445,146.060638 106.911263,146.493607 106.914368,146.960022 
	C106.932648,146.993469 106.951843,146.919678 106.738235,147.015884 
	C106.273911,147.338303 106.164162,147.619522 106.124115,148.355148 
	C106.074806,149.833374 106.096771,150.912186 106.061386,152.383148 
	C105.720337,154.849319 105.436653,156.923355 105.118706,159.263092 
	C105.119415,159.703888 105.154388,159.878952 105.132339,160.471130 
	C104.506691,166.272568 103.938072,171.656876 103.290085,177.400772 
	C103.240379,178.494110 103.270035,179.227859 103.135422,180.324921 
	C102.866394,182.490860 102.761650,184.293442 102.524673,186.435532 
	C102.317635,187.497269 102.242821,188.219498 102.042419,189.313370 
	C101.904945,190.465302 101.893059,191.245605 101.844223,192.232986 
	C101.807274,192.440063 101.852692,192.858292 101.718727,192.989120 
	C101.545990,193.237335 101.444092,193.382095 101.480820,193.466721 
	C101.574249,193.682037 101.729660,193.870468 101.839355,194.397308 
	C101.803375,195.381210 101.788315,196.037491 101.409370,196.860260 
	C100.415237,201.696152 99.784996,206.365570 99.121231,211.460205 
	C98.713379,214.981033 98.339043,218.076630 97.964706,221.172211 
	C97.119675,219.870148 95.955093,218.675430 95.476395,217.250320 
	C83.838631,182.604004 72.273941,147.933151 60.423843,112.627426 
	C60.171215,110.030640 60.190842,108.073128 60.455666,105.790359 
	C60.895229,102.671066 61.089600,99.877014 61.517662,96.762360 
	C62.112976,92.626518 62.474602,88.811287 62.887428,84.573708 
	C63.229805,80.767303 63.520977,77.383247 63.899712,73.589249 
	C64.474586,68.118484 64.961906,63.057659 65.594963,57.557625 
	C66.132980,52.077812 66.525253,47.037209 66.977570,41.664276 
	C67.066650,40.658306 67.095688,39.984669 67.361664,39.047783 
	C67.687462,37.870762 67.776329,36.956985 67.917694,35.617538 
	C68.257484,31.794264 68.544785,28.396660 68.900803,24.639774 
	C69.024353,23.309694 69.079185,22.338900 69.365875,21.068502 
	C69.638458,19.544952 69.679184,18.321001 69.773438,16.747574 
	C69.869225,15.928547 69.911484,15.459000 70.185196,14.985052 
	C70.416649,14.980653 70.878914,15.006836 70.878914,15.006836 
z"/>
<path fill="#3F46B7" opacity="1.000000" stroke="none" 
	d="
M194.026733,220.082413 
	C192.873825,218.549347 191.479645,217.142136 190.604340,215.464233 
	C178.119354,191.531372 165.704483,167.561920 153.124954,142.874573 
	C152.987503,138.433151 152.997803,134.718475 153.051743,130.578873 
	C153.112595,128.447128 153.129807,126.740295 153.396423,124.733238 
	C153.745941,122.287933 153.846085,120.142853 154.050201,117.600311 
	C154.771240,111.467453 155.388275,105.732048 156.170441,99.666969 
	C156.466339,97.887146 156.597122,96.437012 156.803345,94.594925 
	C156.927460,93.138771 156.976135,92.074554 157.077271,90.762894 
	C157.126053,90.346931 157.122360,90.178406 157.179291,89.629448 
	C157.528488,84.929214 157.817032,80.609406 158.286194,76.127472 
	C158.684982,75.703575 158.776154,75.403313 158.834167,74.782440 
	C158.947159,74.303009 158.966278,74.105713 158.985382,73.908417 
	C162.153351,79.681435 165.489929,85.369232 168.458710,91.242928 
	C178.724640,111.553947 188.867142,131.927399 199.035538,152.287598 
	C199.548264,153.314224 199.863586,154.439453 200.572556,156.103775 
	C200.915268,157.451797 200.956223,158.214813 200.936401,159.388641 
	C200.600510,163.206680 200.325394,166.613922 199.996704,170.428543 
	C199.660675,173.904266 199.378220,176.972610 199.046661,180.364914 
	C199.026855,181.124451 199.056152,181.560013 199.035217,182.320862 
	C198.960342,183.083939 198.935699,183.521744 198.652512,184.254547 
	C198.320145,186.703552 198.246338,188.857590 198.125946,191.411636 
	C197.774979,193.889481 197.470581,195.967285 197.121643,198.273804 
	C197.077103,198.502502 197.130692,198.965393 197.089050,199.304886 
	C197.076920,200.098526 197.106415,200.552689 197.098557,201.429413 
	C196.996460,203.547256 196.931747,205.242538 196.638260,207.244507 
	C196.399216,209.362473 196.388931,211.173752 196.295319,213.358795 
	C196.237015,214.493057 196.262039,215.253555 196.079453,216.303345 
	C195.510376,217.693787 195.148911,218.794891 194.589523,219.911072 
	C194.391617,219.926117 194.026733,220.082413 194.026733,220.082413 
z"/>
<path fill="#E537B5" opacity="1.000000" stroke="none" 
	d="
M101.773254,196.693756 
	C101.788315,196.037491 101.803375,195.381210 101.874573,194.094391 
	C101.904701,193.261993 101.878700,193.060150 101.852692,192.858292 
	C101.852692,192.858292 101.807274,192.440063 102.133186,192.041214 
	C102.674500,190.761520 102.889900,189.880676 103.548203,189.000763 
	C117.007538,190.241455 130.025391,191.467178 143.034088,192.783463 
	C143.458115,192.826385 143.788681,193.792801 144.162827,194.328705 
	C144.162827,194.328705 144.150726,194.690399 143.776825,195.071945 
	C143.009659,197.362228 142.616425,199.270950 142.223175,201.179688 
	C142.223175,201.179688 142.127563,201.060318 141.864227,201.243774 
	C141.451965,202.117722 141.303040,202.808228 141.154114,203.498718 
	C141.154114,203.498718 141.211960,203.777954 140.764313,203.942169 
	C139.915939,205.105255 139.515213,206.104156 139.114502,207.103043 
	C139.114502,207.103043 139.015045,207.024933 138.802246,207.170288 
	C138.386337,207.857971 138.183258,208.400284 137.980179,208.942612 
	C137.969376,209.289520 137.837982,209.582321 137.115845,210.027481 
	C136.455231,210.527939 136.264755,210.821930 136.074280,211.115906 
	C136.074280,211.115906 136.032776,211.024429 135.826141,211.141083 
	C135.446426,211.555984 135.273346,211.854248 135.100281,212.152512 
	C135.100281,212.152512 135.056396,212.058487 134.847565,212.159042 
	C134.459686,212.558365 134.280640,212.857132 134.101593,213.155899 
	C134.101593,213.155899 134.134674,213.062286 133.799133,213.099380 
	C133.059006,213.846848 132.654419,214.557236 132.249817,215.267609 
	C132.249817,215.267609 132.095901,214.976273 131.783051,215.040375 
	C130.701462,216.125656 129.932755,217.146851 129.164032,218.168060 
	C129.164032,218.168045 129.059601,218.140915 128.853241,218.195862 
	C128.450943,218.535995 128.255005,218.821152 128.059082,219.106323 
	C128.059082,219.106323 128.035995,219.002396 127.693054,219.021423 
	C126.564552,219.751358 125.778992,220.462280 124.993439,221.173187 
	C124.993431,221.173187 124.786110,221.293625 124.365524,221.259811 
	C123.648170,221.528824 123.351410,221.831650 123.054642,222.134460 
	C123.054634,222.134460 123.039803,222.033203 122.753891,222.056900 
	C121.994949,222.443451 121.521927,222.806320 121.048912,223.169189 
	C114.562592,226.891907 107.493561,226.587433 100.472237,225.797745 
	C99.495720,225.687927 98.772820,223.323120 97.948608,221.587219 
	C98.339043,218.076630 98.713379,214.981033 99.488274,211.352173 
	C100.516975,206.110504 101.145119,201.402130 101.773254,196.693756 
z"/>
<path fill="#E834B3" opacity="1.000000" stroke="none" 
	d="
M211.898331,125.677452 
	C213.360641,124.769669 214.822952,123.861877 216.859573,123.211090 
	C223.303528,123.631264 229.173172,123.794441 235.042816,123.957626 
	C235.042816,123.957619 234.997223,123.990898 235.051056,124.315582 
	C236.432312,125.404510 237.759735,126.168762 239.087173,126.933014 
	C239.087173,126.933014 239.003830,126.993416 239.040466,127.278397 
	C239.510712,127.933113 239.944321,128.302856 240.377914,128.672592 
	C240.377914,128.672592 240.249207,128.812088 240.314056,129.051300 
	C240.959915,129.510132 241.540939,129.729736 242.121948,129.949341 
	C242.465652,130.014481 242.718552,130.202072 242.962051,131.054565 
	C243.408707,132.044846 243.773926,132.492645 244.139160,132.940445 
	C244.139160,132.940445 244.038147,132.977264 244.039917,133.331238 
	C244.779175,135.816696 245.516693,137.948196 246.254211,140.079712 
	C246.254196,140.079712 246.434570,140.313034 246.287140,140.933868 
	C246.223938,142.844055 246.308167,144.133438 246.392395,145.422806 
	C246.392395,145.422806 246.490402,145.680023 246.092331,145.975037 
	C245.467438,147.179016 245.240631,148.087982 245.008118,148.998535 
	C245.002426,149.000107 244.997147,149.013596 244.574341,148.999268 
	C241.215042,148.656815 238.286240,148.198471 235.340652,148.024170 
	C225.052719,147.415421 214.758530,146.911911 204.470718,146.301239 
	C204.281845,146.290039 204.142380,145.446518 203.984802,144.601257 
	C203.644135,142.792877 203.298523,141.374557 202.952911,139.956253 
	C202.998810,139.505829 203.044708,139.055389 203.372437,138.140594 
	C203.841125,137.425003 203.903244,137.145966 203.840652,136.839111 
	C203.840652,136.839111 203.895477,136.931931 204.157318,136.763214 
	C204.588394,135.704788 204.757629,134.815094 204.926880,133.925385 
	C204.926880,133.925385 204.986771,133.993454 205.216003,133.825531 
	C205.605209,133.078308 205.765198,132.498993 205.925171,131.919678 
	C205.925171,131.919678 205.996140,131.975571 206.219299,131.815735 
	C206.577637,131.278473 206.712784,130.901016 206.847931,130.523575 
	C206.847931,130.523575 206.873520,130.222610 207.316345,130.082031 
	C208.513947,128.975571 209.268707,128.009689 210.023468,127.043808 
	C210.023468,127.043808 210.004257,126.996399 210.340759,126.974869 
	C211.084274,126.528046 211.491302,126.102753 211.898331,125.677452 
z"/>
<path fill="#81A8E5" opacity="1.000000" stroke="none" 
	d="
M65.449226,57.996834 
	C64.961906,63.057659 64.474586,68.118484 63.551247,73.640182 
	C60.707134,75.064041 58.219944,77.005501 55.904823,76.818352 
	C46.558456,76.062798 37.221775,74.915474 27.965895,73.398102 
	C20.471184,72.169434 20.538181,71.843407 20.978895,64.128708 
	C21.044901,62.973232 20.917198,61.806694 20.879105,60.645275 
	C21.204718,58.026287 21.530331,55.407295 22.245756,52.680351 
	C22.962357,53.965275 23.289143,55.358150 23.302158,55.413628 
	C26.841614,56.897617 29.248119,58.724537 31.705353,58.795525 
	C42.455276,59.106098 53.329514,62.879810 63.965069,58.046871 
	C64.381393,57.857685 64.951027,58.005856 65.449226,57.996834 
z"/>
<path fill="#7CADEA" opacity="1.000000" stroke="none" 
	d="
M65.594963,57.557625 
	C64.951027,58.005856 64.381393,57.857685 63.965069,58.046871 
	C53.329514,62.879810 42.455276,59.106098 31.705353,58.795525 
	C29.248119,58.724537 26.841614,56.897617 23.302158,55.413628 
	C23.289143,55.358150 22.962357,53.965275 22.384800,52.313148 
	C22.169178,51.587120 22.204327,51.120342 22.667976,50.219818 
	C24.065590,47.190388 25.034704,44.594711 26.355549,42.035828 
	C28.354727,42.493359 29.981998,43.152435 31.653088,43.293915 
	C39.238518,43.936100 46.830841,44.542152 54.432671,44.919964 
	C56.997341,45.047424 59.640778,44.667324 62.165894,44.131348 
	C63.826015,43.778969 65.338783,42.732338 66.917534,41.996605 
	C66.525253,47.037209 66.132980,52.077812 65.594963,57.557625 
z"/>
<path fill="#79B4ED" opacity="1.000000" stroke="none" 
	d="
M66.977570,41.664276 
	C65.338783,42.732338 63.826015,43.778969 62.165894,44.131348 
	C59.640778,44.667324 56.997341,45.047424 54.432671,44.919964 
	C46.830841,44.542152 39.238518,43.936100 31.653088,43.293915 
	C29.981998,43.152435 28.354727,42.493359 26.354475,41.627369 
	C25.968473,40.360943 25.935274,39.539776 25.902073,38.718609 
	C25.902073,38.718609 25.884501,38.344894 26.194527,38.002708 
	C26.633570,37.293201 26.762589,36.925888 26.891609,36.558571 
	C28.692497,29.329351 33.341137,24.214251 39.574928,20.304550 
	C42.292286,22.940184 44.740726,25.159309 46.933418,27.607491 
	C50.574486,31.672808 55.848186,28.376270 59.461243,30.285606 
	C66.087067,33.787060 66.415154,28.528435 68.362854,25.122700 
	C68.419167,25.024240 68.671272,25.037754 68.832085,24.999056 
	C68.544785,28.396660 68.257484,31.794264 67.670021,35.860146 
	C67.288147,37.455959 67.206436,38.383495 67.124725,39.311028 
	C67.095688,39.984669 67.066650,40.658306 66.977570,41.664276 
z"/>
<path fill="#7FA8E6" opacity="1.000000" stroke="none" 
	d="
M156.005310,99.996651 
	C155.388275,105.732048 154.771240,111.467453 153.651337,117.609619 
	C149.777374,118.010834 146.352722,118.389671 143.044937,117.929138 
	C132.237457,116.424461 121.472542,114.613892 110.691254,112.920959 
	C111.873451,108.384499 113.055641,103.848045 114.578362,99.469833 
	C116.438713,101.723312 117.718575,105.370148 119.519356,105.648636 
	C127.887367,106.942772 136.389526,107.494041 144.863159,107.945564 
	C153.329941,108.396721 153.338852,108.206116 155.650574,100.336655 
	C155.690628,100.200356 155.883667,100.108986 156.005310,99.996651 
z"/>
<path fill="#78B2ED" opacity="1.000000" stroke="none" 
	d="
M157.024811,91.010338 
	C156.976135,92.074554 156.927460,93.138771 156.456482,94.606567 
	C154.261505,96.512863 152.488800,98.015587 150.814835,99.434616 
	C144.572037,95.693405 137.599289,96.334068 130.826385,96.693626 
	C126.441483,96.926414 120.908897,94.029945 119.892464,89.894753 
	C119.892464,89.894753 119.862015,89.965714 120.234291,89.930550 
	C121.377441,88.569626 122.148308,87.243858 122.919189,85.918091 
	C122.919189,85.918098 122.998825,85.940742 123.197250,85.850632 
	C123.578934,85.479630 123.762199,85.198738 123.945457,84.917847 
	C123.945457,84.917847 123.991463,84.995689 124.193100,84.877388 
	C124.578384,84.478760 124.762024,84.198433 124.945663,83.918106 
	C124.945663,83.918106 125.000572,83.986275 125.209808,83.858421 
	C125.592239,83.420906 125.765434,83.111244 125.938629,82.801575 
	C126.008766,82.486900 126.183777,82.249550 127.030052,82.036484 
	C128.401398,81.655304 129.206345,81.327171 130.436478,80.999039 
	C133.283417,80.782074 135.705185,80.565109 138.126923,80.347885 
	C140.961349,86.474998 144.599045,86.744469 149.758011,80.919785 
	C151.863464,83.981514 153.933105,86.991188 156.113586,90.222885 
	C156.429428,90.720825 156.696228,90.909309 157.024811,91.010338 
z"/>
<path fill="#A77CD4" opacity="1.000000" stroke="none" 
	d="
M58.139828,123.033325 
	C58.063694,124.123726 57.987556,125.214142 57.595154,126.983017 
	C57.231705,128.899063 57.184525,130.136658 57.137348,131.374237 
	C56.996094,133.849350 56.854839,136.324463 56.409698,138.674377 
	C55.967361,136.175049 55.828907,133.800903 55.733459,132.164261 
	C52.720581,132.164261 50.356373,132.384766 48.045464,132.127167 
	C36.292221,130.817032 24.552782,129.383072 12.808508,127.992462 
	C13.113180,125.233498 13.417853,122.474525 14.287338,119.311104 
	C25.149216,119.739418 35.451466,120.514183 45.740814,121.433350 
	C49.888363,121.803864 54.007668,122.490540 58.139828,123.033325 
z"/>
<path fill="#87A0E2" opacity="1.000000" stroke="none" 
	d="
M20.623062,60.961193 
	C20.917198,61.806694 21.044901,62.973232 20.978895,64.128708 
	C20.538181,71.843407 20.471184,72.169434 27.965895,73.398102 
	C37.221775,74.915474 46.558456,76.062798 55.904823,76.818352 
	C58.219944,77.005501 60.707134,75.064041 63.463688,74.050110 
	C63.520977,77.383247 63.229805,80.767303 62.510262,84.583435 
	C57.852482,86.807945 53.636978,87.706436 49.268238,85.309647 
	C48.473370,84.873573 47.315903,85.131172 46.336246,84.994080 
	C36.894432,83.672783 27.454847,82.335541 18.009066,80.598038 
	C17.970423,79.379250 17.937340,78.565300 17.904257,77.751343 
	C18.725180,72.259933 19.546101,66.768524 20.623062,60.961193 
z"/>
<path fill="#7DADE9" opacity="1.000000" stroke="none" 
	d="
M119.584892,90.035812 
	C120.908897,94.029945 126.441483,96.926414 130.826385,96.693626 
	C137.599289,96.334068 144.572037,95.693405 150.814835,99.434616 
	C152.488800,98.015587 154.261505,96.512863 156.381042,94.998505 
	C156.597122,96.437012 156.466339,97.887146 156.170441,99.666969 
	C155.883667,100.108986 155.690628,100.200356 155.650574,100.336655 
	C153.338852,108.206116 153.329941,108.396721 144.863159,107.945564 
	C136.389526,107.494041 127.887367,106.942772 119.519356,105.648636 
	C117.718575,105.370148 116.438713,101.723312 114.849121,99.227318 
	C114.779350,98.826561 114.833504,98.852463 115.029968,98.838760 
	C115.314339,98.729774 115.491417,98.570183 115.476295,98.549217 
	C115.332703,98.350105 115.156471,98.174530 114.989624,97.992188 
	C116.418854,95.387085 117.848091,92.781982 119.584892,90.035812 
z"/>
<path fill="#9492DD" opacity="1.000000" stroke="none" 
	d="
M17.656792,78.078392 
	C17.937340,78.565300 17.970423,79.379250 18.002941,81.052887 
	C18.001240,83.069885 18.196377,84.268166 17.964834,85.377380 
	C16.984365,90.074364 19.745600,91.524429 23.592146,91.898499 
	C28.332663,92.359505 33.129242,92.375839 37.832321,93.060326 
	C45.678493,94.202248 53.469650,95.722183 61.283970,97.082977 
	C61.089600,99.877014 60.895229,102.671066 60.080593,105.622360 
	C51.348885,104.519531 43.240170,103.241577 35.125153,102.004951 
	C28.468683,100.990585 21.804726,100.025352 15.144089,99.038338 
	C15.899168,92.160706 16.654249,85.283073 17.656792,78.078392 
z"/>
<path fill="#AF74D0" opacity="1.000000" stroke="none" 
	d="
M12.748003,128.242981 
	C24.552782,129.383072 36.292221,130.817032 48.045464,132.127167 
	C50.356373,132.384766 52.720581,132.164261 55.733459,132.164261 
	C55.828907,133.800903 55.967361,136.175049 56.191231,139.026794 
	C56.093616,142.250748 55.910580,144.997086 55.416294,147.694855 
	C52.920609,145.457397 51.087006,142.164459 48.471153,141.333206 
	C44.340389,140.020569 39.673290,140.462616 35.254299,139.971924 
	C30.530710,139.447403 25.660452,139.263275 21.170910,137.892975 
	C16.863197,136.578156 13.693066,136.284500 11.716169,140.981628 
	C11.795061,139.582275 11.873953,138.182907 12.299604,136.078491 
	C12.721359,133.411255 12.796354,131.449066 12.871349,129.486877 
	C12.810065,129.155746 12.748781,128.824615 12.748003,128.242981 
z"/>
<path fill="#A083D7" opacity="1.000000" stroke="none" 
	d="
M58.294064,122.672943 
	C54.007668,122.490540 49.888363,121.803864 45.740814,121.433350 
	C35.451466,120.514183 25.149216,119.739418 14.487692,118.952003 
	C14.091415,115.632156 14.059597,112.266945 14.527553,108.465050 
	C29.041733,109.899246 43.056141,111.770126 57.873363,113.748184 
	C57.817509,113.624008 58.340099,114.785896 58.862694,115.947784 
	C58.724560,118.069382 58.586430,120.190971 58.294064,122.672943 
z"/>
<path fill="#76BBEF" opacity="1.000000" stroke="none" 
	d="
M68.900803,24.639774 
	C68.671272,25.037754 68.419167,25.024240 68.362854,25.122700 
	C66.415154,28.528435 66.087067,33.787060 59.461243,30.285606 
	C55.848186,28.376270 50.574486,31.672808 46.933418,27.607491 
	C44.740726,25.159309 42.292286,22.940184 39.909615,20.237814 
	C39.860455,19.857502 39.892590,19.882847 40.272896,19.923697 
	C42.408520,18.852587 44.163841,17.740629 45.919159,16.628670 
	C52.983345,15.082525 60.047531,13.536382 67.583481,12.348209 
	C68.688072,13.467271 69.320908,14.228361 69.953735,14.989452 
	C69.911484,15.459000 69.869225,15.928547 69.549423,17.028770 
	C69.225922,18.895666 69.179962,20.131886 69.134010,21.368103 
	C69.079185,22.338900 69.024353,23.309694 68.900803,24.639774 
z"/>
<path fill="#9A8BD9" opacity="1.000000" stroke="none" 
	d="
M58.955681,115.611504 
	C58.340099,114.785896 57.817509,113.624008 57.873363,113.748184 
	C43.056141,111.770126 29.041733,109.899246 14.633674,108.018120 
	C14.474260,105.289429 14.708500,102.570984 15.043413,99.445435 
	C21.804726,100.025352 28.468683,100.990585 35.125153,102.004951 
	C43.240170,103.241577 51.348885,104.519531 59.835396,105.947617 
	C60.190842,108.073128 60.171215,110.030640 60.128445,112.408112 
	C59.753090,113.643784 59.400875,114.459503 58.955681,115.611504 
z"/>
<path fill="#D04EBE" opacity="1.000000" stroke="none" 
	d="
M7.747169,195.012436 
	C8.095019,189.958435 8.442869,184.904419 9.122314,179.269928 
	C9.638892,178.126968 9.823874,177.564529 10.438782,177.001434 
	C15.623672,177.290619 20.396816,177.408234 25.129648,177.907761 
	C33.770145,178.819717 42.386772,179.957840 51.013355,181.001617 
	C50.274281,190.942215 49.535210,200.882797 48.451820,210.688004 
	C48.072121,208.703354 48.036736,206.854080 48.284554,204.732452 
	C48.709167,202.307602 48.850586,200.155151 48.995102,197.559036 
	C49.493752,192.211182 49.219810,188.828934 42.403675,188.669205 
	C33.264141,188.455017 24.097982,186.993622 15.072448,185.355759 
	C10.881620,184.595261 9.614194,186.131027 9.111457,189.539536 
	C8.896122,190.999481 9.035160,192.511673 8.868753,194.241302 
	C8.398607,194.659119 8.072887,194.835770 7.747169,195.012436 
z"/>
<path fill="#B46CCD" opacity="1.000000" stroke="none" 
	d="
M11.535355,141.192688 
	C13.693066,136.284500 16.863197,136.578156 21.170910,137.892975 
	C25.660452,139.263275 30.530710,139.447403 35.254299,139.971924 
	C39.673290,140.462616 44.340389,140.020569 48.471153,141.333206 
	C51.087006,142.164459 52.920609,145.457397 55.196594,148.056030 
	C55.288147,148.465775 55.329540,148.746445 54.857414,148.907669 
	C47.704845,148.586166 41.030720,147.968002 34.342304,147.656281 
	C26.645138,147.297531 18.935341,147.209747 11.231029,147.004272 
	C11.189810,146.239700 11.148590,145.475143 11.300177,144.247177 
	C11.671003,143.484726 11.599555,143.241302 11.278638,143.053513 
	C11.303938,142.503586 11.329238,141.953659 11.535355,141.192688 
z"/>
<path fill="#E934B2" opacity="1.000000" stroke="none" 
	d="
M39.055340,223.197632 
	C32.944515,228.625275 26.019672,227.179825 19.138773,225.415512 
	C17.431133,224.977661 15.903502,223.837769 14.025337,222.445068 
	C13.427254,221.643494 13.096959,221.417419 12.766663,221.191360 
	C12.766662,221.191360 12.902778,221.224991 12.798459,220.962646 
	C12.377258,220.545822 12.060376,220.391342 11.743492,220.236877 
	C11.743491,220.236877 11.713419,220.263641 11.765768,219.916992 
	C11.160760,219.085724 10.503403,218.601089 9.846050,218.116455 
	C9.846054,218.116440 9.864819,218.019547 9.891804,217.745895 
	C9.549308,217.007675 9.179827,216.543106 8.810349,216.078537 
	C8.810350,216.078537 8.908477,216.024933 8.936340,215.723648 
	C8.986935,214.949738 9.009665,214.477127 9.384636,213.962952 
	C12.467605,211.910645 14.990315,211.501770 17.264217,214.668045 
	C17.686182,215.255615 18.630919,215.778198 19.346275,215.794037 
	C23.876312,215.894424 28.555801,216.537796 32.895870,215.624054 
	C36.384903,214.889465 38.025803,215.480148 38.680206,218.472580 
	C40.749012,218.291931 42.371452,218.150253 44.035500,218.310608 
	C44.136597,218.807007 44.196091,219.001373 44.255581,219.195724 
	C44.255581,219.195724 44.163525,219.216110 43.907429,219.262772 
	C43.424522,219.832077 43.197712,220.354736 42.970901,220.877380 
	C42.970898,220.877380 42.975964,220.976059 42.630226,221.008469 
	C41.903248,221.442505 41.522003,221.844116 41.140755,222.245728 
	C41.140755,222.245728 41.036366,222.103424 40.778854,222.110229 
	C40.032673,222.477234 39.544006,222.837433 39.055340,223.197632 
z"/>
<path fill="#DC40BA" opacity="1.000000" stroke="none" 
	d="
M48.992004,198.002686 
	C48.850586,200.155151 48.709167,202.307602 47.963963,204.595306 
	C44.244644,204.162964 41.150394,203.323914 38.009670,203.077637 
	C27.707273,202.269852 17.387991,201.677429 7.075199,201.002243 
	C7.042610,200.833145 7.010021,200.664032 7.292380,199.975037 
	C7.671706,198.447708 7.736084,197.440231 7.800463,196.432755 
	C7.728951,196.117126 7.657438,195.801483 7.666547,195.249146 
	C8.072887,194.835770 8.398607,194.659119 9.244313,194.199890 
	C11.030969,193.847519 12.311144,193.623398 13.562119,193.732895 
	C21.736166,194.448288 29.914682,195.138718 38.068779,196.044083 
	C41.737118,196.451385 45.352562,197.335129 48.992004,198.002686 
z"/>
<path fill="#C65BC4" opacity="1.000000" stroke="none" 
	d="
M9.300142,174.990875 
	C9.504330,171.265594 9.708518,167.540314 10.390724,163.408463 
	C14.958308,163.777435 19.144606,163.383652 23.152353,163.610260 
	C32.553268,164.141846 41.837765,166.732269 51.433548,168.539062 
	C52.130802,167.508011 52.948734,166.298538 53.766663,165.089050 
	C53.213886,167.815109 52.661110,170.541153 51.560707,173.634033 
	C37.850624,172.565018 24.688164,171.129181 11.500711,169.690613 
	C11.040093,170.800049 10.170119,172.895462 9.300142,174.990875 
z"/>
<path fill="#C957C2" opacity="1.000000" stroke="none" 
	d="
M148.316299,170.146667 
	C147.846573,175.425690 147.376831,180.704727 146.550690,185.898773 
	C146.118744,185.210205 146.043182,184.606628 145.980011,183.562408 
	C145.992371,181.212769 145.992371,179.303787 145.992371,176.978973 
	C132.142456,175.599258 119.068939,174.296875 105.995270,172.559235 
	C105.995125,170.214844 105.995125,168.305740 105.995125,166.469727 
	C120.506233,167.685242 134.215942,168.833649 148.020325,170.030273 
	C148.115005,170.078522 148.316299,170.146667 148.316299,170.146667 
z"/>
<path fill="#CB53C2" opacity="1.000000" stroke="none" 
	d="
M9.186875,175.313583 
	C10.170119,172.895462 11.040093,170.800049 11.500711,169.690613 
	C24.688164,171.129181 37.850624,172.565018 51.454811,174.001266 
	C51.749405,176.113129 51.602264,178.224579 51.234238,180.668823 
	C42.386772,179.957840 33.770145,178.819717 25.129648,177.907761 
	C20.396816,177.408234 15.623672,177.290619 10.206059,176.999191 
	C9.543411,176.997604 9.078159,176.996597 9.078159,176.996597 
	C9.076642,176.543167 9.075125,176.089722 9.186875,175.313583 
z"/>
<path fill="#BA67CB" opacity="1.000000" stroke="none" 
	d="
M11.155104,147.338531 
	C18.935341,147.209747 26.645138,147.297531 34.342304,147.656281 
	C41.030720,147.968002 47.704845,148.586166 54.787739,149.031235 
	C55.053806,151.474609 54.917423,153.955627 54.161736,156.697937 
	C51.249443,156.306183 48.992126,155.309753 46.656506,155.067154 
	C40.652195,154.443481 34.616844,154.088760 28.586975,153.749634 
	C22.746765,153.421173 16.897926,153.246124 11.052877,153.003693 
	C11.003839,152.243530 10.954803,151.483383 11.144345,150.271759 
	C11.445189,149.726517 11.581848,149.590652 11.556746,149.546234 
	C11.452121,149.361130 11.298828,149.203522 11.163383,149.035828 
	C11.135314,148.581482 11.107246,148.127151 11.155104,147.338531 
z"/>
<path fill="#E13DB6" opacity="1.000000" stroke="none" 
	d="
M6.991099,201.343063 
	C17.387991,201.677429 27.707273,202.269852 38.009670,203.077637 
	C41.150394,203.323914 44.244644,204.162964 47.680763,204.867676 
	C48.036736,206.854080 48.072121,208.703354 48.192673,211.019043 
	C47.432129,213.582703 46.586418,215.679916 45.399200,217.917999 
	C45.057693,218.058868 44.924976,217.923111 44.993046,217.562622 
	C45.637039,215.364441 46.212967,213.526779 46.677505,212.044525 
	C44.322659,210.624969 42.416920,209.476151 41.175732,208.727936 
	C29.815380,210.660950 19.358734,207.351715 7.902964,206.511078 
	C8.280316,209.014694 8.656354,211.509598 9.032393,214.004501 
	C9.009665,214.477127 8.986935,214.949738 8.913998,215.774902 
	C8.211527,211.312912 7.559263,206.498398 6.991099,201.343063 
z"/>
<path fill="#BE62C9" opacity="1.000000" stroke="none" 
	d="
M10.903833,153.348190 
	C16.897926,153.246124 22.746765,153.421173 28.586975,153.749634 
	C34.616844,154.088760 40.652195,154.443481 46.656506,155.067154 
	C48.992126,155.309753 51.249443,156.306183 53.954796,157.043976 
	C54.191517,158.955444 54.015869,160.782150 53.160065,162.697021 
	C45.984772,161.856796 39.507568,160.767075 32.989799,160.042160 
	C25.391703,159.197098 17.758137,158.670975 10.139962,158.006470 
	C10.344905,156.568542 10.549848,155.130615 10.903833,153.348190 
z"/>
<path fill="#9490DC" opacity="1.000000" stroke="none" 
	d="
M153.008102,131.003784 
	C152.997803,134.718475 152.987503,138.433151 153.000488,142.545135 
	C152.606567,142.989304 152.189362,143.036179 151.405304,142.869751 
	C151.011658,142.437744 150.984863,142.219055 150.973297,141.588654 
	C151.540924,136.811249 149.128769,135.226624 145.227448,135.001572 
	C142.438187,134.840652 139.653687,134.586395 136.863174,134.459839 
	C127.226723,134.022797 117.735184,130.704773 107.961639,132.998932 
	C108.049850,131.602219 108.138069,130.205505 108.570503,128.326126 
	C110.655212,127.244194 112.432533,126.047890 114.129601,126.152573 
	C120.326027,126.534836 126.509659,127.242126 132.671661,128.032990 
	C139.465652,128.904968 146.230545,130.003784 153.008102,131.003784 
z"/>
<path fill="#8F99E0" opacity="1.000000" stroke="none" 
	d="
M153.051743,130.578873 
	C146.230545,130.003784 139.465652,128.904968 132.671661,128.032990 
	C126.509659,127.242126 120.326027,126.534836 114.129601,126.152573 
	C112.432533,126.047890 110.655212,127.244194 108.609993,127.906990 
	C108.159996,127.560059 108.014725,127.149612 107.914291,126.413651 
	C108.463333,123.583382 108.967529,121.078621 110.012680,118.485596 
	C112.465805,119.229095 114.315041,120.561119 116.300423,120.810890 
	C128.565567,122.353874 140.861389,123.653183 153.147018,125.033463 
	C153.129807,126.740295 153.112595,128.447128 153.051743,130.578873 
z"/>
<path fill="#7BBBEE" opacity="1.000000" stroke="none" 
	d="
M156.002747,90.000862 
	C153.933105,86.991188 151.863464,83.981514 149.758011,80.919785 
	C144.599045,86.744469 140.961349,86.474998 138.126923,80.347885 
	C135.705185,80.565109 133.283417,80.782074 130.418427,80.689583 
	C129.955139,80.174438 129.935089,79.968750 129.915054,79.763069 
	C137.120239,75.236176 144.887482,72.392860 153.462814,72.228844 
	C155.197403,72.195663 156.945206,72.852638 158.836151,73.549927 
	C158.966278,74.105713 158.947159,74.303009 158.650421,74.935448 
	C158.167679,75.643059 158.078613,75.949402 158.105591,76.289597 
	C157.817032,80.609406 157.528488,84.929214 156.899887,89.625504 
	C156.374146,90.001617 156.188446,90.001236 156.002747,90.000862 
z"/>
<path fill="#86A0E3" opacity="1.000000" stroke="none" 
	d="
M153.396423,124.733246 
	C140.861389,123.653183 128.565567,122.353874 116.300423,120.810890 
	C114.315041,120.561119 112.465805,119.229095 110.250687,118.178909 
	C110.061371,116.481979 110.175018,115.003494 110.489960,113.222984 
	C121.472542,114.613892 132.237457,116.424461 143.044937,117.929138 
	C146.352722,118.389671 149.777374,118.010834 153.547363,118.007080 
	C153.846085,120.142853 153.745941,122.287933 153.396423,124.733246 
z"/>
<path fill="#C25CC5" opacity="1.000000" stroke="none" 
	d="
M200.050293,170.021164 
	C200.325394,166.613922 200.600510,163.206680 201.161667,159.494934 
	C201.731064,159.386734 201.927948,159.648148 202.025345,160.407272 
	C202.256226,163.281570 200.961197,166.609085 205.110855,166.949234 
	C218.064224,168.011017 231.025269,168.979340 244.076599,170.193024 
	C244.337112,170.672653 244.570404,170.861679 244.869720,170.969208 
	C244.861084,172.039597 244.852448,173.110001 244.583069,174.578293 
	C244.322311,174.976196 243.983185,175.000595 243.523621,175.000305 
	C229.044937,174.331696 215.025833,173.663406 201.004105,172.661469 
	C200.684418,171.558945 200.367355,170.790054 200.050293,170.021164 
z"/>
<path fill="#B56DCD" opacity="1.000000" stroke="none" 
	d="
M199.996704,170.428543 
	C200.367355,170.790054 200.684418,171.558945 201.002533,173.074722 
	C200.794434,176.747025 202.101791,177.966248 205.082901,178.039810 
	C213.660339,178.251526 222.231033,178.725479 230.807892,178.976547 
	C235.183365,179.104614 239.566376,178.975800 243.963730,179.280060 
	C243.979935,180.018509 243.978394,180.439987 243.976852,180.861481 
	C243.978973,181.064804 243.981110,181.268143 243.667389,182.016983 
	C243.259659,183.732498 243.167770,184.902496 243.075897,186.072510 
	C243.075897,186.072510 243.115341,186.043930 242.654175,186.036682 
	C232.678436,185.328583 223.155441,184.723343 213.652924,183.885452 
	C209.086456,183.482788 204.558731,182.640854 199.993561,181.710388 
	C199.681030,180.962296 199.388397,180.501633 199.095764,180.040955 
	C199.378220,176.972610 199.660675,173.904266 199.996704,170.428543 
z"/>
<path fill="#D943BB" opacity="1.000000" stroke="none" 
	d="
M145.967636,184.003052 
	C146.043182,184.606628 146.118744,185.210205 146.336731,186.256714 
	C146.479156,186.699631 146.454559,186.805908 146.062424,186.987595 
	C143.002914,190.074295 140.134766,188.577072 136.883423,188.218445 
	C125.958885,187.013443 114.940750,186.657059 103.970230,185.550919 
	C104.005547,183.421585 104.029076,181.717239 104.506775,180.008621 
	C109.863167,180.336349 114.779274,180.532028 119.664543,181.030243 
	C128.442001,181.925415 137.200958,183.002167 145.967636,184.003052 
z"/>
<path fill="#C25EC7" opacity="1.000000" stroke="none" 
	d="
M10.077510,158.419312 
	C17.758137,158.670975 25.391703,159.197098 32.989799,160.042160 
	C39.507568,160.767075 45.984772,161.856796 52.855698,162.946686 
	C53.456474,163.592407 53.681465,164.076599 53.836555,164.824921 
	C52.948734,166.298538 52.130802,167.508011 51.433548,168.539062 
	C41.837765,166.732269 32.553268,164.141846 23.152353,163.610260 
	C19.144606,163.383652 14.958308,163.777435 10.475491,163.001251 
	C10.059844,161.611115 10.037452,160.221634 10.077510,158.419312 
z"/>
<path fill="#D448BD" opacity="1.000000" stroke="none" 
	d="
M202.038361,159.974670 
	C201.927948,159.648148 201.731064,159.386734 201.222443,159.084137 
	C200.956223,158.214813 200.915268,157.451797 200.850449,156.307709 
	C200.850769,155.489502 200.874924,155.052383 201.379639,154.356720 
	C215.918930,155.402039 229.977646,156.705902 244.037964,158.426270 
	C244.029709,160.232162 244.019836,161.621582 243.543213,163.007050 
	C229.397095,161.993622 215.717728,160.984146 202.038361,159.974670 
z"/>
<path fill="#A381D5" opacity="1.000000" stroke="none" 
	d="
M150.958054,142.000366 
	C150.984863,142.219055 151.011658,142.437744 151.106400,142.982239 
	C151.113800,144.295212 151.053284,145.282349 150.499985,146.570557 
	C146.564438,146.581024 143.109329,146.392685 139.681442,145.978821 
	C132.348450,145.093460 124.901649,144.630600 117.752808,142.935013 
	C113.464218,141.917801 110.093391,141.462311 107.042236,144.983246 
	C107.021973,143.913452 107.001701,142.843674 107.345924,141.197372 
	C109.286362,136.838379 112.071175,136.735229 115.726616,137.300735 
	C125.318092,138.784622 134.983780,139.786591 144.616257,141.009323 
	C146.737930,141.278656 148.844513,141.666885 150.958054,142.000366 
z"/>
<path fill="#B56DCD" opacity="1.000000" stroke="none" 
	d="
M105.152969,158.997375 
	C105.436653,156.923355 105.720337,154.849319 106.410141,152.341431 
	C108.617508,151.572311 110.472725,150.774734 112.211143,150.977661 
	C122.588951,152.189209 132.912384,153.954590 143.313187,154.837936 
	C147.494095,155.193039 149.530075,156.202682 149.124405,160.519150 
	C148.996811,163.503998 148.869217,166.488831 148.528961,169.810181 
	C148.316299,170.146667 148.115005,170.078522 148.044952,169.604080 
	C147.979752,167.419403 147.984619,165.709167 147.984009,163.612030 
	C147.044022,162.221115 146.265884,160.625443 145.144348,160.328995 
	C142.294571,159.575790 139.297119,159.352295 136.347946,159.010040 
	C129.044525,158.162476 121.529991,158.129166 114.511467,156.240585 
	C110.805382,155.243286 109.168816,155.236801 107.443153,158.411011 
	C107.186981,158.882217 105.941017,158.815323 105.152969,158.997375 
z"/>
<path fill="#BC64C9" opacity="1.000000" stroke="none" 
	d="
M243.945969,178.963120 
	C239.566376,178.975800 235.183365,179.104614 230.807892,178.976547 
	C222.231033,178.725479 213.660339,178.251526 205.082901,178.039810 
	C202.101791,177.966248 200.794434,176.747025 201.005157,173.408371 
	C215.025833,173.663406 229.044937,174.331696 243.591141,175.183823 
	C244.233688,175.609573 244.406799,175.798721 244.637573,175.935059 
	C244.679184,176.415146 244.720795,176.895248 244.536728,177.845917 
	C244.149399,178.509445 244.027710,178.724991 243.945969,178.963120 
z"/>
<path fill="#AF74D0" opacity="1.000000" stroke="none" 
	d="
M149.401642,160.184631 
	C149.530075,156.202682 147.494095,155.193039 143.313187,154.837936 
	C132.912384,153.954590 122.588951,152.189209 112.211143,150.977661 
	C110.472725,150.774734 108.617508,151.572311 106.467499,151.949280 
	C106.096771,150.912186 106.074806,149.833374 106.309113,148.233002 
	C106.787201,147.492966 106.916016,147.229034 106.951843,146.919678 
	C106.951843,146.919678 106.932648,146.993469 107.384644,146.985641 
	C117.355133,147.677002 126.962196,147.819672 136.354141,149.314163 
	C140.933472,150.042847 146.615341,148.093002 150.150238,153.054047 
	C149.993118,155.319397 149.836014,157.584763 149.401642,160.184631 
z"/>
<path fill="#DB44B9" opacity="1.000000" stroke="none" 
	d="
M244.036346,158.009766 
	C229.977646,156.705902 215.918930,155.402039 201.474213,154.042603 
	C201.322235,151.532913 201.556290,149.078781 202.253632,146.805283 
	C203.603134,148.311386 204.330612,150.618713 205.403122,150.792145 
	C210.008591,151.536804 214.716507,151.641144 219.385269,152.002579 
	C227.928162,152.663956 236.469757,153.342163 244.879486,154.334839 
	C244.510162,155.774139 244.273254,156.891953 244.036346,158.009766 
z"/>
<path fill="#E23CB6" opacity="1.000000" stroke="none" 
	d="
M245.011887,154.013336 
	C236.469757,153.342163 227.928162,152.663956 219.385269,152.002579 
	C214.716507,151.641144 210.008591,151.536804 205.403122,150.792145 
	C204.330612,150.618713 203.603134,148.311386 202.540390,146.509033 
	C202.204803,145.848755 202.156662,145.639572 202.694839,145.226517 
	C203.440109,145.029388 203.709976,145.010361 203.979858,144.991348 
	C204.142380,145.446518 204.281845,146.290039 204.470718,146.301239 
	C214.758530,146.911911 225.052719,147.415421 235.340652,148.024170 
	C238.286240,148.198471 241.215042,148.656815 244.576569,149.415283 
	C245.005554,151.235611 245.009521,152.625595 245.008163,154.010468 
	C245.002853,154.005371 245.011887,154.013336 245.011887,154.013336 
z"/>
<path fill="#9197DF" opacity="1.000000" stroke="none" 
	d="
M196.867035,206.937836 
	C196.931747,205.242538 196.996460,203.547256 197.472168,201.482513 
	C200.195068,201.742142 202.474731,202.721802 204.824615,202.938034 
	C213.796204,203.763596 222.797760,204.265228 231.767471,205.107727 
	C232.969162,205.220596 234.052689,206.591675 235.190948,207.380127 
	C233.786560,209.274216 232.382172,211.168320 230.553650,212.730194 
	C229.428986,211.336700 228.788452,209.400665 228.018707,209.347855 
	C219.068176,208.733887 210.096100,208.442047 201.135376,207.960037 
	C199.698410,207.882721 198.289108,207.291489 196.867035,206.937836 
z"/>
<path fill="#978EDB" opacity="1.000000" stroke="none" 
	d="
M235.440155,207.137726 
	C234.052689,206.591675 232.969162,205.220596 231.767471,205.107727 
	C222.797760,204.265228 213.796204,203.763596 204.824615,202.938034 
	C202.474731,202.721802 200.195068,201.742142 197.509552,201.059952 
	C197.106415,200.552689 197.076920,200.098526 197.230286,199.222473 
	C197.620865,198.479919 197.538544,198.228104 197.166199,198.045105 
	C197.470581,195.967285 197.774979,193.889481 198.330734,191.408844 
	C198.582092,191.006027 198.993286,191.004883 198.994629,191.404236 
	C198.997314,192.869064 198.998657,193.934540 199.009979,195.394608 
	C200.448288,196.854248 201.813904,198.739532 203.314911,198.854324 
	C215.149826,199.759415 227.010574,200.326477 238.863388,200.997559 
	C237.805389,202.963486 236.747375,204.929398 235.440155,207.137726 
z"/>
<path fill="#AF74D0" opacity="1.000000" stroke="none" 
	d="
M200.013458,181.997833 
	C204.558731,182.640854 209.086456,183.482788 213.652924,183.885452 
	C223.155441,184.723343 232.678436,185.328583 242.657654,186.060791 
	C243.071518,186.822769 243.020752,187.553391 242.497787,188.703827 
	C237.460587,189.082489 232.891571,189.147552 228.331558,188.974701 
	C221.887192,188.730423 215.393982,188.704529 209.031036,187.808517 
	C205.554321,187.318954 201.189270,188.036819 198.911057,183.959564 
	C198.935699,183.521744 198.960342,183.083939 199.266983,182.323120 
	C199.548996,182.000137 200.013458,181.997849 200.013458,181.997833 
z"/>
<path fill="#A77CD4" opacity="1.000000" stroke="none" 
	d="
M198.652512,184.254547 
	C201.189270,188.036819 205.554321,187.318954 209.031036,187.808517 
	C215.393982,188.704529 221.887192,188.730423 228.331558,188.974701 
	C232.891571,189.147552 237.460587,189.082489 242.416565,189.062347 
	C242.082642,191.582520 241.357758,194.163986 240.344421,196.613068 
	C240.546600,191.532059 236.917679,194.065018 235.063721,193.901245 
	C223.048706,192.839920 211.018509,191.950577 198.993286,191.004883 
	C198.993286,191.004883 198.582092,191.006027 198.377304,191.008820 
	C198.246338,188.857590 198.320145,186.703552 198.652512,184.254547 
z"/>
<path fill="#A87AD3" opacity="1.000000" stroke="none" 
	d="
M150.199600,152.901550 
	C146.615341,148.093002 140.933472,150.042847 136.354141,149.314163 
	C126.962196,147.819672 117.355133,147.677002 107.366356,146.952179 
	C106.911263,146.493607 106.926445,146.060638 106.991928,145.305466 
	C110.093391,141.462311 113.464218,141.917801 117.752808,142.935013 
	C124.901649,144.630600 132.348450,145.093460 139.681442,145.978821 
	C143.109329,146.392685 146.564438,146.581024 150.403778,146.934006 
	C150.822281,148.088623 150.844238,149.180847 150.606277,150.856171 
	C150.276978,151.775574 150.207611,152.111877 150.138229,152.448181 
	C150.138229,152.448181 150.248962,152.749039 150.199600,152.901550 
z"/>
<path fill="#89A0E3" opacity="1.000000" stroke="none" 
	d="
M196.638245,207.244522 
	C198.289108,207.291489 199.698410,207.882721 201.135376,207.960037 
	C210.096100,208.442047 219.068176,208.733887 228.018707,209.347855 
	C228.788452,209.400665 229.428986,211.336700 230.234161,212.799881 
	C230.338791,213.201813 230.263458,213.193039 230.033920,213.189026 
	C229.708725,213.269241 229.521973,213.415024 229.531052,213.428467 
	C229.665298,213.627106 229.825546,213.808182 229.979630,213.993408 
	C228.603836,215.344803 227.228043,216.696198 225.475098,218.077484 
	C225.097931,218.107376 224.966782,217.967056 224.968445,217.581299 
	C224.003952,212.587799 219.946274,214.008133 217.280365,213.760620 
	C210.348892,213.117035 203.350403,213.194962 196.378662,212.985016 
	C196.388931,211.173752 196.399216,209.362473 196.638245,207.244522 
z"/>
<path fill="#DF3DB5" opacity="1.000000" stroke="none" 
	d="
M103.958435,185.975922 
	C114.940750,186.657059 125.958885,187.013443 136.883423,188.218445 
	C140.134766,188.577072 143.002914,190.074295 146.022675,187.024933 
	C145.852066,189.206467 145.329071,191.532349 144.484451,194.093460 
	C143.788681,193.792801 143.458115,192.826385 143.034088,192.783463 
	C130.025391,191.467178 117.007538,190.241455 103.313644,188.981354 
	C102.636177,188.961014 102.168015,188.941742 102.168015,188.941742 
	C102.242821,188.219498 102.317635,187.497269 102.737488,186.410217 
	C103.373497,186.009735 103.665466,185.986572 103.958435,185.975922 
z"/>
<path fill="#9B87D9" opacity="1.000000" stroke="none" 
	d="
M239.051819,200.728699 
	C227.010574,200.326477 215.149826,199.759415 203.314911,198.854324 
	C201.813904,198.739532 200.448288,196.854248 199.475739,195.394623 
	C213.297394,196.001175 226.663284,197.002319 240.029160,198.003479 
	C239.766190,198.822281 239.503235,199.641068 239.051819,200.728699 
z"/>
<path fill="#A381D5" opacity="1.000000" stroke="none" 
	d="
M240.094101,197.833466 
	C226.663284,197.002319 213.297394,196.001175 199.465759,195.000000 
	C198.998657,193.934540 198.997314,192.869064 198.994629,191.404236 
	C211.018509,191.950577 223.048706,192.839920 235.063721,193.901245 
	C236.917679,194.065018 240.546600,191.532059 240.101379,196.890167 
	C240.146774,197.299683 240.159042,197.663452 240.094101,197.833466 
z"/>
<path fill="#7FB6EB" opacity="1.000000" stroke="none" 
	d="
M193.998962,220.383347 
	C194.026733,220.082413 194.391617,219.926117 195.001740,219.907684 
	C201.891403,220.028381 208.176727,220.065643 214.444031,220.420990 
	C215.341309,220.471863 216.151428,222.060150 217.001892,222.936951 
	C210.962921,227.050873 204.173767,226.425308 197.552612,225.495926 
	C196.161102,225.300613 195.154922,222.359924 193.998962,220.383347 
z"/>
<path fill="#7DADE9" opacity="1.000000" stroke="none" 
	d="
M217.347870,222.991821 
	C216.151428,222.060150 215.341309,220.471863 214.444031,220.420990 
	C208.176727,220.065643 201.891403,220.028381 195.199646,219.892639 
	C195.148911,218.794891 195.510376,217.693787 196.519623,216.298920 
	C204.888702,216.048294 212.611465,216.030563 220.329346,216.216187 
	C221.234283,216.237961 222.112274,217.379822 222.897736,218.256836 
	C222.534241,218.994812 222.275787,219.478409 222.017334,219.962006 
	C220.576172,220.990250 219.135010,222.018478 217.347870,222.991821 
z"/>
<path fill="#CC6FBD" opacity="1.000000" stroke="none" 
	d="
M244.037964,158.426270 
	C244.273254,156.891953 244.510162,155.774139 244.879486,154.334839 
	C245.011887,154.013336 245.002853,154.005371 245.253479,154.008606 
	C245.504089,154.011856 245.995010,154.015549 245.995010,154.015549 
	C245.785431,159.450455 245.575867,164.885361 245.118011,170.644745 
	C244.570404,170.861679 244.337112,170.672653 244.083710,169.757751 
	C244.001709,167.079254 244.005829,165.045120 244.009949,163.010986 
	C244.019836,161.621582 244.029709,160.232162 244.037964,158.426270 
z"/>
<path fill="#E23CB6" opacity="1.000000" stroke="none" 
	d="
M234.815033,123.674164 
	C229.173172,123.794441 223.303528,123.631264 217.191315,123.190262 
	C222.912857,119.951912 228.779633,120.580353 234.815033,123.674164 
z"/>
<path fill="#81A8E5" opacity="1.000000" stroke="none" 
	d="
M25.636728,38.979828 
	C25.935274,39.539776 25.968473,40.360943 26.002747,41.590569 
	C25.034704,44.594711 24.065590,47.190388 22.782160,49.886375 
	C23.435692,46.404804 24.403538,42.822922 25.636728,38.979828 
z"/>
<path fill="#DB44B9" opacity="1.000000" stroke="none" 
	d="
M203.984802,144.601257 
	C203.709976,145.010361 203.440109,145.029388 202.762573,145.068314 
	C202.406296,143.548584 202.457657,142.008957 202.730957,140.212799 
	C203.298523,141.374557 203.644135,142.792877 203.984802,144.601257 
z"/>
<path fill="#79B4ED" opacity="1.000000" stroke="none" 
	d="
M45.565346,16.702522 
	C44.163841,17.740629 42.408520,18.852587 40.281227,19.941431 
	C41.676682,18.871002 43.444111,17.823689 45.565346,16.702522 
z"/>
<path fill="#DF3DB5" opacity="1.000000" stroke="none" 
	d="
M142.527130,200.975861 
	C142.616425,199.270950 143.009659,197.362228 143.686066,195.228485 
	C143.589844,196.926331 143.210464,198.849167 142.527130,200.975861 
z"/>
<path fill="#E23CB6" opacity="1.000000" stroke="none" 
	d="
M246.303833,139.708069 
	C245.516693,137.948196 244.779175,135.816696 244.072800,133.288696 
	C244.677658,133.798431 245.251404,134.704651 245.894699,136.157623 
	C245.964264,136.704376 246.123642,137.113770 246.123627,137.113770 
	C246.200241,137.854660 246.276855,138.595551 246.303833,139.708069 
z"/>
<path fill="#7DADE9" opacity="1.000000" stroke="none" 
	d="
M122.615219,86.040527 
	C122.148308,87.243858 121.377441,88.569626 120.232346,89.891357 
	C120.675842,88.645882 121.493553,87.404427 122.615219,86.040527 
z"/>
<path fill="#79B4ED" opacity="1.000000" stroke="none" 
	d="
M70.185196,14.985052 
	C69.320908,14.228361 68.688072,13.467271 68.026535,12.397516 
	C68.990631,12.815036 69.983444,13.541218 70.927582,14.637118 
	C70.878914,15.006836 70.416649,14.980653 70.185196,14.985052 
z"/>
<path fill="#E23CB6" opacity="1.000000" stroke="none" 
	d="
M238.950043,126.636086 
	C237.759735,126.168762 236.432312,125.404510 235.072449,124.294495 
	C236.297653,124.745529 237.555283,125.542343 238.950043,126.636086 
z"/>
<path fill="#DF3DB5" opacity="1.000000" stroke="none" 
	d="
M129.466507,218.070648 
	C129.932755,217.146851 130.701462,216.125656 131.869324,215.181427 
	C131.435303,216.163345 130.602142,217.068298 129.466507,218.070648 
z"/>
<path fill="#A77CD4" opacity="1.000000" stroke="none" 
	d="
M12.596970,129.814484 
	C12.796354,131.449066 12.721359,133.411255 12.374989,135.664520 
	C12.176605,134.017761 12.249598,132.079926 12.596970,129.814484 
z"/>
<path fill="#DF3DB5" opacity="1.000000" stroke="none" 
	d="
M125.316002,221.125595 
	C125.778992,220.462280 126.564552,219.751358 127.722710,219.065613 
	C127.276390,219.753204 126.457481,220.415604 125.316002,221.125595 
z"/>
<path fill="#7DADE9" opacity="1.000000" stroke="none" 
	d="
M129.606384,79.851639 
	C129.935089,79.968750 129.955139,80.174438 129.993240,80.689590 
	C129.206345,81.327171 128.401398,81.655304 127.246651,81.970238 
	C127.697136,81.284767 128.497421,80.612488 129.606384,79.851639 
z"/>
<path fill="#DF3DB5" opacity="1.000000" stroke="none" 
	d="
M139.395355,206.954529 
	C139.515213,206.104156 139.915939,205.105255 140.669693,204.048828 
	C140.573898,204.929535 140.125046,205.867767 139.395355,206.954529 
z"/>
<path fill="#DB44B9" opacity="1.000000" stroke="none" 
	d="
M246.083221,153.604340 
	C245.995010,154.015549 245.504089,154.011856 245.258789,154.013702 
	C245.009521,152.625595 245.005554,151.235611 244.999359,149.429626 
	C244.997147,149.013596 245.002426,149.000107 245.301361,149.000809 
	C245.795883,149.002701 245.991470,149.003891 246.187073,149.005096 
	C246.181854,150.401108 246.176636,151.797104 246.083221,153.604340 
z"/>
<path fill="#DB44B9" opacity="1.000000" stroke="none" 
	d="
M209.729294,127.139572 
	C209.268707,128.009689 208.513947,128.975571 207.429626,129.982147 
	C207.878433,129.093674 208.656784,128.164505 209.729294,127.139572 
z"/>
<path fill="#E13DB6" opacity="1.000000" stroke="none" 
	d="
M9.891265,218.420898 
	C10.503403,218.601089 11.160760,219.085724 11.746822,219.923798 
	C11.095846,219.759949 10.516165,219.242645 9.891265,218.420898 
z"/>
<path fill="#89A0E3" opacity="1.000000" stroke="none" 
	d="
M222.338348,219.968994 
	C222.275787,219.478409 222.534241,218.994812 223.225266,218.255157 
	C224.094147,217.988419 224.530457,217.977737 224.966782,217.967072 
	C224.966782,217.967056 225.097931,218.107376 225.164551,218.179245 
	C224.373901,218.826065 223.516647,219.401016 222.338348,219.968994 
z"/>
<path fill="#DF3DB5" opacity="1.000000" stroke="none" 
	d="
M132.538437,215.176025 
	C132.654419,214.557236 133.059006,213.846848 133.820465,213.144211 
	C133.727234,213.796127 133.277145,214.440292 132.538437,215.176025 
z"/>
<path fill="#CC6FBD" opacity="1.000000" stroke="none" 
	d="
M246.594818,145.117188 
	C246.308167,144.133438 246.223938,142.844055 246.257568,141.078323 
	C246.516006,142.005157 246.656631,143.408356 246.594818,145.117188 
z"/>
<path fill="#A083D7" opacity="1.000000" stroke="none" 
	d="
M57.365257,131.072708 
	C57.184525,130.136658 57.231705,128.899063 57.506203,127.383385 
	C57.686737,128.327255 57.639950,129.549210 57.365257,131.072708 
z"/>
<path fill="#AF74D0" opacity="1.000000" stroke="none" 
	d="
M243.338303,185.831665 
	C243.167770,184.902496 243.259659,183.732498 243.595032,182.313293 
	C243.759262,183.239685 243.679993,184.415253 243.338303,185.831665 
z"/>
<path fill="#CC6FBD" opacity="1.000000" stroke="none" 
	d="
M243.963730,179.280060 
	C244.027710,178.724991 244.149399,178.509445 244.453751,178.199554 
	C244.527878,178.863953 244.459305,179.645279 244.183792,180.644043 
	C243.978394,180.439987 243.979935,180.018509 243.963730,179.280060 
z"/>
<path fill="#D04EBE" opacity="1.000000" stroke="none" 
	d="
M7.530595,196.708801 
	C7.736084,197.440231 7.671706,198.447708 7.336952,199.720581 
	C7.131293,198.985596 7.196010,197.985214 7.530595,196.708801 
z"/>
<path fill="#DB44B9" opacity="1.000000" stroke="none" 
	d="
M204.659912,134.127914 
	C204.757629,134.815094 204.588394,135.704788 204.104645,136.751740 
	C203.991089,136.049484 204.192017,135.189972 204.659912,134.127914 
z"/>
<path fill="#E23CB6" opacity="1.000000" stroke="none" 
	d="
M246.275131,148.624695 
	C245.991470,149.003891 245.795883,149.002701 245.307053,148.999237 
	C245.240631,148.087982 245.467438,147.179016 246.014359,146.088440 
	C246.344040,146.685989 246.353622,147.465149 246.275131,148.624695 
z"/>
<path fill="#DF3DB5" opacity="1.000000" stroke="none" 
	d="
M121.356277,223.149567 
	C121.521927,222.806320 121.994949,222.443451 122.789978,222.093170 
	C122.629204,222.447128 122.146423,222.788528 121.356277,223.149567 
z"/>
<path fill="#E13DB6" opacity="1.000000" stroke="none" 
	d="
M43.233658,220.761002 
	C43.197712,220.354736 43.424522,219.832077 43.938599,219.227402 
	C43.982719,219.645126 43.739567,220.144867 43.233658,220.761002 
z"/>
<path fill="#E13DB6" opacity="1.000000" stroke="none" 
	d="
M39.366676,223.144119 
	C39.544006,222.837433 40.032673,222.477234 40.851498,222.160324 
	C40.680439,222.499268 40.179222,222.794937 39.366676,223.144119 
z"/>
<path fill="#E13DB6" opacity="1.000000" stroke="none" 
	d="
M41.427734,222.207062 
	C41.522003,221.844116 41.903248,221.442505 42.580902,221.005737 
	C42.489773,221.369873 42.102238,221.769150 41.427734,222.207062 
z"/>
<path fill="#DF3DB5" opacity="1.000000" stroke="none" 
	d="
M141.419266,203.276947 
	C141.303040,202.808228 141.451965,202.117722 141.933990,201.275085 
	C142.072876,201.767029 141.878647,202.411102 141.419266,203.276947 
z"/>
<path fill="#E13DB6" opacity="1.000000" stroke="none" 
	d="
M8.813917,216.387695 
	C9.179827,216.543106 9.549308,217.007675 9.903502,217.793823 
	C9.531305,217.642548 9.174397,217.169693 8.813917,216.387695 
z"/>
<path fill="#DF3DB5" opacity="1.000000" stroke="none" 
	d="
M138.233917,208.795349 
	C138.183258,208.400284 138.386337,207.857971 138.861938,207.191132 
	C138.918839,207.593781 138.703247,208.120926 138.233917,208.795349 
z"/>
<path fill="#DB44B9" opacity="1.000000" stroke="none" 
	d="
M211.612244,125.764664 
	C211.491302,126.102753 211.084274,126.528046 210.361832,126.989426 
	C210.472977,126.634308 210.899551,126.243095 211.612244,125.764664 
z"/>
<path fill="#E23CB6" opacity="1.000000" stroke="none" 
	d="
M240.364868,128.376053 
	C239.944321,128.302856 239.510712,127.933113 239.072510,127.238098 
	C239.495880,127.301712 239.923843,127.690613 240.364868,128.376053 
z"/>
<path fill="#E23CB6" opacity="1.000000" stroke="none" 
	d="
M241.990417,129.674149 
	C241.540939,129.729736 240.959915,129.510132 240.343079,128.960953 
	C240.824463,128.887238 241.341660,129.143097 241.990417,129.674149 
z"/>
<path fill="#E23CB6" opacity="1.000000" stroke="none" 
	d="
M244.122406,132.638245 
	C243.773926,132.492645 243.408707,132.044846 243.028412,131.288330 
	C243.377441,131.431747 243.741547,131.883911 244.122406,132.638245 
z"/>
<path fill="#DB44B9" opacity="1.000000" stroke="none" 
	d="
M205.663818,132.078796 
	C205.765198,132.498993 205.605209,133.078308 205.173553,133.809631 
	C205.068741,133.387070 205.235596,132.812500 205.663818,132.078796 
z"/>
<path fill="#C65BC4" opacity="1.000000" stroke="none" 
	d="
M8.980059,177.325256 
	C9.078159,176.996597 9.543411,176.997604 9.776134,176.999847 
	C9.823874,177.564529 9.638892,178.126968 9.197810,178.852905 
	C8.921792,178.562241 8.901875,178.108063 8.980059,177.325256 
z"/>
<path fill="#7CADEA" opacity="1.000000" stroke="none" 
	d="
M26.657475,36.738083 
	C26.762589,36.925888 26.633570,37.293201 26.261772,37.828148 
	C26.153776,37.636383 26.288559,37.276993 26.657475,36.738083 
z"/>
<path fill="#DF3DB5" opacity="1.000000" stroke="none" 
	d="
M123.378967,222.091187 
	C123.351410,221.831650 123.648170,221.528824 124.273499,221.182983 
	C124.302475,221.442612 124.002884,221.745255 123.378967,222.091187 
z"/>
<path fill="#7DADE9" opacity="1.000000" stroke="none" 
	d="
M125.697311,82.922493 
	C125.765434,83.111244 125.592239,83.420906 125.170029,83.840210 
	C125.099335,83.647705 125.277657,83.345558 125.697311,82.922493 
z"/>
<path fill="#E13DB6" opacity="1.000000" stroke="none" 
	d="
M12.828384,221.489868 
	C13.096959,221.417419 13.427254,221.643494 13.814102,222.181396 
	C13.543806,222.258255 13.216954,222.023300 12.828384,221.489868 
z"/>
<path fill="#E13DB6" opacity="1.000000" stroke="none" 
	d="
M11.795433,220.503830 
	C12.060376,220.391342 12.377258,220.545822 12.730326,220.979141 
	C12.460131,221.095581 12.153751,220.933182 11.795433,220.503830 
z"/>
<path fill="#7DADE9" opacity="1.000000" stroke="none" 
	d="
M124.690895,83.990875 
	C124.762024,84.198433 124.578384,84.478760 124.155273,84.852631 
	C124.089249,84.651993 124.262688,84.357819 124.690895,83.990875 
z"/>
<path fill="#7DADE9" opacity="1.000000" stroke="none" 
	d="
M123.695122,84.997269 
	C123.762199,85.198738 123.578934,85.479630 123.156586,85.855438 
	C123.093254,85.659134 123.269020,85.367912 123.695122,84.997269 
z"/>
<path fill="#7FA8E6" opacity="1.000000" stroke="none" 
	d="
M114.910255,98.215378 
	C115.156471,98.174530 115.332703,98.350105 115.476295,98.549217 
	C115.491417,98.570183 115.314339,98.729774 115.032379,98.868675 
	C114.838333,98.912300 114.830887,98.438576 114.910255,98.215378 
z"/>
<path fill="#DF3DB5" opacity="1.000000" stroke="none" 
	d="
M128.324707,219.045990 
	C128.255005,218.821152 128.450943,218.535995 128.903961,218.177490 
	C128.970810,218.397995 128.780563,218.691833 128.324707,219.045990 
z"/>
<path fill="#E13DB6" opacity="1.000000" stroke="none" 
	d="
M44.488579,219.118118 
	C44.196091,219.001373 44.136597,218.807007 44.268860,218.295212 
	C44.460613,217.977768 44.924976,217.923111 44.924976,217.923111 
	C44.924976,217.923111 45.057693,218.058868 45.124672,218.126617 
	C45.142941,218.536438 44.986252,218.818497 44.488579,219.118118 
z"/>
<path fill="#AF74D0" opacity="1.000000" stroke="none" 
	d="
M11.097412,149.266159 
	C11.298828,149.203522 11.452121,149.361130 11.556746,149.546234 
	C11.581848,149.590652 11.445189,149.726517 11.230886,149.896820 
	C11.078849,149.973328 11.031440,149.496490 11.097412,149.266159 
z"/>
<path fill="#DB44B9" opacity="1.000000" stroke="none" 
	d="
M206.596710,130.691940 
	C206.712784,130.901016 206.577637,131.278473 206.174942,131.807281 
	C206.053452,131.592529 206.199478,131.226425 206.596710,130.691940 
z"/>
<path fill="#CC6FBD" opacity="1.000000" stroke="none" 
	d="
M244.704330,175.693695 
	C244.406799,175.798721 244.233688,175.609573 244.050705,175.184113 
	C243.983185,175.000595 244.322311,174.976196 244.491608,174.969971 
	C244.697647,175.126602 244.734360,175.289459 244.704330,175.693695 
z"/>
<path fill="#9197DF" opacity="1.000000" stroke="none" 
	d="
M230.100967,213.801300 
	C229.825546,213.808182 229.665298,213.627106 229.531052,213.428467 
	C229.521973,213.415024 229.708725,213.269241 230.001007,213.170197 
	C230.197617,213.155380 230.222305,213.609177 230.100967,213.801300 
z"/>
<path fill="#A381D5" opacity="1.000000" stroke="none" 
	d="
M150.334335,152.268524 
	C150.207611,152.111877 150.276978,151.775574 150.530243,151.259521 
	C150.652893,151.416138 150.591660,151.752502 150.334335,152.268524 
z"/>
<path fill="#CC6FBD" opacity="1.000000" stroke="none" 
	d="
M246.219986,136.998444 
	C246.123642,137.113770 245.964264,136.704376 245.937531,136.487579 
	C246.262543,136.321777 246.397720,136.525894 246.219986,136.998444 
z"/>
<path fill="#DF3DB5" opacity="1.000000" stroke="none" 
	d="
M134.365036,213.083923 
	C134.280640,212.857132 134.459686,212.558365 134.895889,212.177917 
	C134.978195,212.401474 134.803345,212.706726 134.365036,213.083923 
z"/>
<path fill="#DF3DB5" opacity="1.000000" stroke="none" 
	d="
M135.361221,212.077484 
	C135.273346,211.854248 135.446426,211.555984 135.869537,211.166351 
	C135.953781,211.384140 135.787979,211.693298 135.361221,212.077484 
z"/>
<path fill="#DF3DB5" opacity="1.000000" stroke="none" 
	d="
M136.336517,211.039398 
	C136.264755,210.821930 136.455231,210.527939 136.899567,210.144211 
	C136.968536,210.357254 136.783646,210.660065 136.336517,211.039398 
z"/>
<path fill="#DB44B9" opacity="1.000000" stroke="none" 
	d="
M203.630676,136.949127 
	C203.903244,137.145966 203.841125,137.425003 203.489777,137.820389 
	C203.181870,137.644272 203.213669,137.342468 203.630676,136.949127 
z"/>
<path fill="#AF74D0" opacity="1.000000" stroke="none" 
	d="
M11.214708,143.276382 
	C11.599555,143.241302 11.671003,143.484726 11.368470,143.868652 
	C11.243958,143.953522 11.150780,143.499252 11.214708,143.276382 
z"/>
<path fill="#8D98E0" opacity="1.000000" stroke="none" 
	d="
M61.517662,96.762367 
	C53.469650,95.722183 45.678493,94.202248 37.832321,93.060326 
	C33.129242,92.375839 28.332663,92.359505 23.592146,91.898499 
	C19.745600,91.524429 16.984365,90.074364 17.964834,85.377380 
	C18.196377,84.268166 18.001240,83.069885 18.008503,81.457718 
	C27.454847,82.335541 36.894432,83.672783 46.336246,84.994080 
	C47.315903,85.131172 48.473370,84.873573 49.268238,85.309647 
	C53.636978,87.706436 57.852482,86.807945 62.459057,85.005768 
	C62.474602,88.811287 62.112976,92.626518 61.517662,96.762367 
z"/>
<path fill="#BE5FC7" opacity="1.000000" stroke="none" 
	d="
M147.989471,163.998932 
	C147.984619,165.709167 147.979752,167.419403 147.950272,169.555847 
	C134.215942,168.833649 120.506233,167.685242 105.995125,166.469727 
	C105.995125,168.305740 105.995125,170.214844 105.865273,172.863678 
	C104.946762,174.749313 104.158104,175.895233 103.369446,177.041168 
	C103.938072,171.656876 104.506691,166.272568 105.444397,160.617004 
	C108.066513,160.339615 110.338348,160.141281 112.569450,160.359512 
	C124.381775,161.514908 136.183838,162.775085 147.989471,163.998932 
z"/>
<path fill="#D14CBF" opacity="1.000000" stroke="none" 
	d="
M103.290085,177.400772 
	C104.158104,175.895233 104.946762,174.749313 105.865417,173.298935 
	C119.068939,174.296875 132.142456,175.599258 145.992371,176.978973 
	C145.992371,179.303787 145.992371,181.212769 145.980011,183.562408 
	C137.200958,183.002167 128.442001,181.925415 119.664543,181.030243 
	C114.779274,180.532028 109.863167,180.336349 104.318436,179.993195 
	C103.675919,179.982040 103.299690,179.961594 103.299690,179.961594 
	C103.270035,179.227859 103.240379,178.494110 103.290085,177.400772 
z"/>
<path fill="#9B87D9" opacity="1.000000" stroke="none" 
	d="
M150.973297,141.588654 
	C148.844513,141.666885 146.737930,141.278656 144.616257,141.009323 
	C134.983780,139.786591 125.318092,138.784622 115.726616,137.300735 
	C112.071175,136.735229 109.286362,136.838379 107.398422,140.798798 
	C107.356361,138.590256 107.626297,136.203812 107.928940,133.408142 
	C117.735184,130.704773 127.226723,134.022797 136.863174,134.459839 
	C139.653687,134.586395 142.438187,134.840652 145.227448,135.001572 
	C149.128769,135.226624 151.540924,136.811249 150.973297,141.588654 
z"/>
<path fill="#BA67CB" opacity="1.000000" stroke="none" 
	d="
M147.984009,163.612030 
	C136.183838,162.775085 124.381775,161.514908 112.569450,160.359512 
	C110.338348,160.141281 108.066513,160.339615 105.501419,160.199860 
	C105.154388,159.878952 105.119415,159.703888 105.118713,159.263092 
	C105.941017,158.815323 107.186981,158.882217 107.443153,158.411011 
	C109.168816,155.236801 110.805382,155.243286 114.511467,156.240585 
	C121.529991,158.129166 129.044525,158.162476 136.347946,159.010040 
	C139.297119,159.352295 142.294571,159.575790 145.144348,160.328995 
	C146.265884,160.625443 147.044022,162.221115 147.984009,163.612030 
z"/>
<path fill="#BE5FC7" opacity="1.000000" stroke="none" 
	d="
M101.409378,196.860260 
	C101.145119,201.402130 100.516975,206.110504 99.521790,210.926926 
	C99.784996,206.365570 100.415237,201.696152 101.409378,196.860260 
z"/>
<path fill="#BE5FC7" opacity="1.000000" stroke="none" 
	d="
M103.135422,180.324921 
	C103.299690,179.961594 103.675919,179.982040 103.864258,179.997467 
	C104.029076,181.717239 104.005547,183.421585 103.970230,185.550919 
	C103.665466,185.986572 103.373497,186.009735 102.869705,186.070724 
	C102.761650,184.293442 102.866394,182.490860 103.135422,180.324921 
z"/>
<path fill="#79B4ED" opacity="1.000000" stroke="none" 
	d="
M69.365868,21.068502 
	C69.179962,20.131886 69.225922,18.895666 69.495895,17.378250 
	C69.679184,18.321001 69.638458,19.544952 69.365868,21.068502 
z"/>
<path fill="#7CADEA" opacity="1.000000" stroke="none" 
	d="
M67.361664,39.047783 
	C67.206436,38.383495 67.288147,37.455959 67.617523,36.285820 
	C67.776329,36.956985 67.687462,37.870762 67.361664,39.047783 
z"/>
<path fill="#BE5FC7" opacity="1.000000" stroke="none" 
	d="
M102.042419,189.313370 
	C102.168015,188.941742 102.636177,188.961014 102.870743,188.980423 
	C102.889900,189.880676 102.674500,190.761520 102.170135,191.834137 
	C101.893059,191.245605 101.904945,190.465302 102.042419,189.313370 
z"/>
<path fill="#BE5FC7" opacity="1.000000" stroke="none" 
	d="
M101.718727,192.989120 
	C101.878700,193.060150 101.904701,193.261993 101.895493,193.766754 
	C101.729660,193.870468 101.574249,193.682037 101.480820,193.466721 
	C101.444092,193.382095 101.545990,193.237335 101.718727,192.989120 
z"/>
<path fill="#A87AD3" opacity="1.000000" stroke="none" 
	d="
M106.738235,147.015884 
	C106.916016,147.229034 106.787201,147.492966 106.380394,147.833588 
	C106.164162,147.619522 106.273911,147.338303 106.738235,147.015884 
z"/>
<path fill="#81A8E5" opacity="1.000000" stroke="none" 
	d="
M224.968445,217.581299 
	C224.530457,217.977737 224.094147,217.988419 223.330292,218.000763 
	C222.112274,217.379822 221.234283,216.237961 220.329346,216.216187 
	C212.611465,216.030563 204.888702,216.048294 196.727234,216.009598 
	C196.262039,215.253555 196.237015,214.493057 196.295319,213.358795 
	C203.350403,213.194962 210.348892,213.117035 217.280365,213.760620 
	C219.946274,214.008133 224.003952,212.587799 224.968445,217.581299 
z"/>
<path fill="#A77CD4" opacity="1.000000" stroke="none" 
	d="
M199.993561,181.710403 
	C200.013458,181.997849 199.548996,182.000137 199.317230,181.997864 
	C199.056152,181.560013 199.026855,181.124451 199.046661,180.364914 
	C199.388397,180.501633 199.681030,180.962296 199.993561,181.710403 
z"/>
<path fill="#9197DF" opacity="1.000000" stroke="none" 
	d="
M197.121643,198.273804 
	C197.538544,198.228104 197.620865,198.479919 197.271942,198.882965 
	C197.130692,198.965393 197.077103,198.502502 197.121643,198.273804 
z"/>
<path fill="#78B2ED" opacity="1.000000" stroke="none" 
	d="
M158.286194,76.127472 
	C158.078613,75.949402 158.167679,75.643059 158.556549,75.217575 
	C158.776154,75.403313 158.684982,75.703575 158.286194,76.127472 
z"/>
<path fill="#7DADE9" opacity="1.000000" stroke="none" 
	d="
M156.113586,90.222885 
	C156.188446,90.001236 156.374146,90.001617 156.839249,90.005936 
	C157.122360,90.178406 157.126053,90.346931 157.077271,90.762894 
	C156.696228,90.909309 156.429428,90.720825 156.113586,90.222885 
z"/>
<path fill="#D646BD" opacity="1.000000" stroke="none" 
	d="
M48.995102,197.559036 
	C45.352562,197.335129 41.737118,196.451385 38.068779,196.044083 
	C29.914682,195.138718 21.736166,194.448288 13.562119,193.732895 
	C12.311144,193.623398 11.030969,193.847519 9.388741,193.958740 
	C9.035160,192.511673 8.896122,190.999481 9.111457,189.539536 
	C9.614194,186.131027 10.881620,184.595261 15.072448,185.355759 
	C24.097982,186.993622 33.264141,188.455017 42.403675,188.669205 
	C49.219810,188.828934 49.493752,192.211182 48.995102,197.559036 
z"/>
<path fill="#E537B5" opacity="1.000000" stroke="none" 
	d="
M44.993046,217.562622 
	C44.924976,217.923111 44.460613,217.977768 44.227257,217.993164 
	C42.371452,218.150253 40.749012,218.291931 38.680206,218.472580 
	C38.025803,215.480148 36.384903,214.889465 32.895870,215.624054 
	C28.555801,216.537796 23.876312,215.894424 19.346275,215.794037 
	C18.630919,215.778198 17.686182,215.255615 17.264217,214.668045 
	C14.990315,211.501770 12.467605,211.910645 9.384634,213.962952 
	C8.656354,211.509598 8.280316,209.014694 7.902964,206.511078 
	C19.358734,207.351715 29.815380,210.660950 41.175732,208.727936 
	C42.416920,209.476151 44.322659,210.624969 46.677505,212.044525 
	C46.212967,213.526779 45.637039,215.364441 44.993046,217.562622 
z"/>
<path fill="#CC52C1" opacity="1.000000" stroke="none" 
	d="
M243.543213,163.007050 
	C244.005829,165.045120 244.001709,167.079254 243.990463,169.548645 
	C231.025269,168.979340 218.064224,168.011017 205.110855,166.949234 
	C200.961197,166.609085 202.256226,163.281570 202.025345,160.407272 
	C215.717728,160.984146 229.397095,161.993622 243.543213,163.007050 
z"/>
</svg>